<svg xmlns="http://www.w3.org/2000/svg" xmlns:xlink="http://www.w3.org/1999/xlink" width="500" zoomAndPan="magnify" viewBox="0 0 375 374.999991" height="500" preserveAspectRatio="xMidYMid meet" version="1.0"><defs><clipPath id="c639fcf3ff"><path d="M 4.597656 4.597656 L 375 4.597656 L 375 375 L 4.597656 375 Z M 4.597656 4.597656 " clip-rule="nonzero"/></clipPath></defs><g clip-path="url(#c639fcf3ff)"><path fill="#19ebcb" d="M 189.796875 4.597656 C 87.515625 4.597656 4.597656 87.515625 4.597656 189.796875 C 4.597656 292.078125 87.515625 374.992188 189.796875 374.992188 C 292.078125 374.992188 374.992188 292.078125 374.992188 189.796875 C 374.992188 87.515625 292.078125 4.597656 189.796875 4.597656 Z M 189.796875 360.964844 C 95.261719 360.964844 18.625 284.332031 18.625 189.796875 C 18.625 95.261719 95.261719 18.625 189.796875 18.625 C 284.332031 18.625 360.964844 95.261719 360.964844 189.796875 C 360.964844 284.332031 284.332031 360.964844 189.796875 360.964844 Z M 189.796875 360.964844 " fill-opacity="1" fill-rule="nonzero"/></g><path fill="#19ebcb" d="M 168.058594 280.574219 C 163.414062 281.019531 159.707031 281.53125 155.980469 281.707031 C 134.847656 282.707031 119.203125 274.375 109.714844 254.949219 C 106.695312 248.765625 102.828125 242.925781 98.800781 237.320312 C 96.378906 233.953125 92.988281 231.25 89.859375 228.445312 L 89.820312 228.414062 C 87.886719 226.707031 88.738281 223.523438 91.28125 223.09375 C 94.269531 222.59375 97.050781 223.132812 99.765625 223.824219 C 108.261719 225.984375 113.714844 232.007812 118.058594 239.214844 C 127.886719 255.503906 144.808594 262.300781 163.109375 257.445312 C 166.214844 256.621094 167.585938 255.285156 168.261719 251.898438 C 169.050781 247.945312 170.121094 244.050781 171.273438 240.078125 C 171.445312 239.496094 171.554688 238.898438 171.601562 238.292969 C 171.652344 237.683594 171.636719 237.078125 171.5625 236.472656 C 171.488281 235.871094 171.351562 235.28125 171.15625 234.703125 C 170.964844 234.125 170.710938 233.574219 170.40625 233.046875 C 170.097656 232.523438 169.742188 232.03125 169.335938 231.578125 C 168.929688 231.125 168.480469 230.71875 167.992188 230.355469 C 167.5 229.992188 166.980469 229.683594 166.429688 229.429688 C 165.875 229.171875 165.304688 228.972656 164.710938 228.832031 L 164.609375 228.808594 C 145.621094 224.265625 129.21875 215.808594 118.648438 198.457031 C 112.996094 189.175781 110.203125 178.957031 110.34375 168.308594 C 110.507812 156.226562 111.578125 144.121094 112.964844 132.109375 C 113.941406 123.648438 117.859375 116.160156 123.941406 110.078125 C 126.0625 107.957031 126.242188 106.179688 125.21875 103.433594 C 121.03125 92.195312 121.757812 80.929688 125.476562 69.667969 C 126.523438 66.488281 128.011719 66.035156 131.050781 66.992188 C 140.460938 69.953125 147.480469 76.074219 153.648438 83.40625 L 153.710938 83.480469 C 154.488281 84.414062 155.382812 85.210938 156.394531 85.875 C 157.410156 86.535156 158.5 87.035156 159.664062 87.371094 C 160.824219 87.707031 162.011719 87.867188 163.226562 87.847656 C 164.4375 87.828125 165.617188 87.628906 166.769531 87.257812 C 186.292969 80.855469 215.914062 80.769531 234.328125 87.105469 C 235.484375 87.5 236.675781 87.710938 237.894531 87.742188 C 239.117188 87.777344 240.316406 87.625 241.492188 87.296875 C 242.667969 86.964844 243.769531 86.46875 244.792969 85.804688 C 245.820312 85.140625 246.722656 84.335938 247.507812 83.398438 L 247.566406 83.328125 C 253.746094 75.996094 260.796875 69.925781 270.195312 66.953125 C 273.351562 65.957031 274.695312 66.714844 275.695312 69.785156 C 279.363281 81.050781 279.988281 92.25 276.019531 103.605469 C 275.460938 105.203125 275.484375 107.984375 276.476562 108.996094 C 284.90625 117.546875 288.597656 128.160156 289.535156 139.660156 C 290.4375 150.773438 291.417969 162.074219 290.386719 173.109375 C 287.703125 201.804688 270.253906 218.515625 243.722656 226.824219 C 241.453125 227.535156 239.148438 228.132812 236.792969 228.6875 C 236.179688 228.832031 235.589844 229.039062 235.019531 229.308594 C 234.453125 229.578125 233.917969 229.902344 233.417969 230.28125 C 232.914062 230.664062 232.460938 231.09375 232.050781 231.570312 C 231.636719 232.046875 231.28125 232.558594 230.980469 233.109375 C 230.675781 233.664062 230.433594 234.238281 230.25 234.84375 C 230.070312 235.445312 229.953125 236.058594 229.898438 236.6875 C 229.847656 237.3125 229.859375 237.9375 229.9375 238.5625 C 230.015625 239.1875 230.160156 239.796875 230.367188 240.390625 C 233.980469 250.863281 233.429688 262.050781 233.371094 273.171875 C 233.359375 275.726562 233.351562 278.28125 233.347656 280.839844 C 233.34375 281.894531 233.289062 282.949219 233.183594 284 C 233.078125 285.050781 232.921875 286.09375 232.714844 287.128906 C 232.507812 288.164062 232.246094 289.183594 231.941406 290.195312 C 231.632812 291.203125 231.273438 292.195312 230.867188 293.171875 C 230.464844 294.144531 230.011719 295.097656 229.511719 296.027344 C 229.011719 296.960938 228.46875 297.863281 227.882812 298.738281 C 227.292969 299.617188 226.664062 300.460938 225.992188 301.277344 C 225.324219 302.09375 224.613281 302.875 223.867188 303.621094 C 223.121094 304.363281 222.335938 305.074219 221.519531 305.742188 C 220.703125 306.410156 219.855469 307.039062 218.976562 307.625 C 218.101562 308.210938 217.195312 308.75 216.261719 309.246094 C 215.332031 309.746094 214.378906 310.195312 213.402344 310.597656 C 212.425781 311 211.433594 311.355469 210.425781 311.664062 C 209.414062 311.96875 208.390625 312.222656 207.355469 312.429688 C 206.320312 312.636719 205.277344 312.789062 204.226562 312.894531 C 203.175781 312.996094 202.121094 313.046875 201.066406 313.046875 L 200.339844 313.046875 C 199.28125 313.046875 198.226562 312.996094 197.175781 312.890625 C 196.125 312.789062 195.078125 312.632812 194.042969 312.429688 C 193.003906 312.222656 191.980469 311.964844 190.96875 311.65625 C 189.957031 311.351562 188.964844 310.996094 187.984375 310.589844 C 187.007812 310.1875 186.054688 309.734375 185.121094 309.238281 C 184.191406 308.738281 183.285156 308.195312 182.40625 307.609375 C 181.527344 307.019531 180.679688 306.390625 179.859375 305.722656 C 179.042969 305.050781 178.261719 304.339844 177.515625 303.59375 C 176.765625 302.847656 176.058594 302.0625 175.386719 301.246094 C 174.714844 300.429688 174.085938 299.582031 173.5 298.703125 C 172.914062 297.824219 172.371094 296.917969 171.871094 295.984375 C 171.371094 295.050781 170.921875 294.097656 170.515625 293.121094 C 170.113281 292.144531 169.757812 291.148438 169.449219 290.136719 C 169.140625 289.125 168.886719 288.101562 168.679688 287.066406 C 168.472656 286.027344 168.320312 284.984375 168.214844 283.933594 C 168.109375 282.878906 168.058594 281.824219 168.058594 280.769531 Z M 168.058594 280.574219 " fill-opacity="1" fill-rule="nonzero"/></svg>