<svg xmlns="http://www.w3.org/2000/svg" xmlns:xlink="http://www.w3.org/1999/xlink" width="500" zoomAndPan="magnify" viewBox="0 0 375 374.999991" height="500" preserveAspectRatio="xMidYMid meet" version="1.0"><defs><clipPath id="a72255cd10"><path d="M 9 6.242188 L 368 6.242188 L 368 366 L 9 366 Z M 9 6.242188 " clip-rule="nonzero"/></clipPath></defs><g clip-path="url(#a72255cd10)"><path fill="#19ebcb" d="M 188.074219 6.570312 C 88.0625 6.90625 8.128906 88.226562 9.433594 188.230469 C 9.492188 193.257812 9.765625 198.269531 10.246094 203.269531 C 10.730469 208.273438 11.421875 213.246094 12.324219 218.1875 C 13.226562 223.132812 14.335938 228.027344 15.652344 232.878906 C 16.96875 237.726562 18.484375 242.511719 20.207031 247.234375 C 21.925781 251.953125 23.839844 256.59375 25.953125 261.152344 C 28.066406 265.714844 30.367188 270.175781 32.855469 274.539062 C 35.34375 278.90625 38.011719 283.160156 40.859375 287.296875 C 43.707031 291.4375 46.722656 295.449219 49.910156 299.335938 C 50.410156 299.949219 50.863281 300.597656 51.269531 301.277344 C 51.671875 301.957031 52.023438 302.664062 52.320312 303.398438 C 52.617188 304.132812 52.859375 304.882812 53.046875 305.652344 C 53.230469 306.421875 53.359375 307.203125 53.429688 307.992188 C 53.496094 308.78125 53.507812 309.570312 53.457031 310.359375 C 53.410156 311.152344 53.300781 311.933594 53.136719 312.707031 C 52.96875 313.480469 52.746094 314.238281 52.464844 314.980469 C 52.1875 315.71875 51.855469 316.4375 51.46875 317.125 L 36.023438 344.800781 C 31.742188 352.472656 38.71875 361.542969 47.234375 359.375 L 99.539062 346.058594 C 101.363281 345.597656 103.210938 345.460938 105.082031 345.652344 C 106.957031 345.84375 108.738281 346.351562 110.429688 347.175781 C 121.996094 352.796875 134.027344 357.113281 146.527344 360.128906 C 159.027344 363.148438 171.707031 364.792969 184.5625 365.070312 C 285.117188 367.34375 367.652344 286.996094 367.964844 186.414062 C 368.277344 86.9375 287.558594 6.234375 188.074219 6.570312 Z M 188.691406 343.027344 C 186.121094 343.027344 183.550781 342.964844 180.980469 342.835938 C 178.410156 342.710938 175.847656 342.523438 173.285156 342.269531 C 170.726562 342.019531 168.175781 341.703125 165.628906 341.324219 C 163.085938 340.949219 160.550781 340.507812 158.027344 340.007812 C 155.503906 339.503906 152.996094 338.941406 150.5 338.316406 C 148.003906 337.691406 145.527344 337.007812 143.066406 336.257812 C 140.605469 335.511719 138.160156 334.707031 135.738281 333.839844 C 133.316406 332.972656 130.917969 332.046875 128.542969 331.0625 C 126.164062 330.078125 123.8125 329.035156 121.488281 327.9375 C 119.164062 326.835938 116.867188 325.679688 114.597656 324.46875 C 112.328125 323.253906 110.089844 321.988281 107.882812 320.664062 C 105.679688 319.34375 103.503906 317.964844 101.367188 316.539062 C 99.226562 315.109375 97.125 313.628906 95.058594 312.09375 C 92.992188 310.5625 90.964844 308.980469 88.976562 307.347656 C 86.988281 305.71875 85.042969 304.039062 83.136719 302.308594 C 81.230469 300.582031 79.367188 298.808594 77.546875 296.988281 C 75.730469 295.171875 73.957031 293.308594 72.226562 291.402344 C 70.5 289.496094 68.820312 287.550781 67.1875 285.558594 C 65.554688 283.570312 63.972656 281.542969 62.441406 279.476562 C 60.910156 277.410156 59.429688 275.308594 58 273.171875 C 56.570312 271.03125 55.195312 268.859375 53.871094 266.652344 C 52.550781 264.445312 51.28125 262.207031 50.070312 259.941406 C 48.855469 257.671875 47.699219 255.375 46.601562 253.046875 C 45.5 250.722656 44.457031 248.371094 43.472656 245.996094 C 42.488281 243.617188 41.5625 241.21875 40.699219 238.796875 C 39.832031 236.375 39.023438 233.933594 38.277344 231.472656 C 37.53125 229.011719 36.84375 226.53125 36.21875 224.035156 C 35.59375 221.539062 35.03125 219.03125 34.53125 216.507812 C 34.027344 213.984375 33.589844 211.453125 33.210938 208.90625 C 32.832031 206.363281 32.519531 203.808594 32.265625 201.25 C 32.015625 198.691406 31.824219 196.125 31.699219 193.554688 C 31.574219 190.988281 31.507812 188.414062 31.507812 185.84375 C 31.507812 99.035156 101.882812 28.660156 188.691406 28.660156 C 275.167969 28.660156 345.328125 98.488281 345.875 184.832031 C 346.421875 271.46875 275.332031 343.027344 188.691406 343.027344 Z M 188.691406 343.027344 " fill-opacity="1" fill-rule="nonzero"/></g><path fill="#19ebcb" d="M 160.601562 109.425781 L 160.671875 109.570312 L 170.046875 128.164062 C 170.550781 129.164062 170.972656 130.195312 171.308594 131.265625 C 171.648438 132.332031 171.898438 133.421875 172.058594 134.527344 C 172.21875 135.636719 172.292969 136.75 172.273438 137.871094 C 172.257812 138.988281 172.148438 140.101562 171.949219 141.203125 C 171.753906 142.304688 171.46875 143.386719 171.097656 144.441406 C 170.726562 145.496094 170.273438 146.519531 169.738281 147.5 C 169.199219 148.484375 168.589844 149.417969 167.902344 150.300781 C 167.214844 151.1875 166.460938 152.011719 165.644531 152.773438 C 164.828125 153.53125 164.078125 154.347656 163.390625 155.226562 C 162.707031 156.105469 162.097656 157.03125 161.5625 158.007812 C 161.027344 158.984375 160.570312 159.996094 160.199219 161.046875 C 159.824219 162.09375 159.539062 163.167969 159.339844 164.261719 C 159.136719 165.355469 159.027344 166.460938 159.003906 167.574219 C 158.980469 168.6875 159.046875 169.792969 159.199219 170.898438 C 159.355469 172 159.597656 173.082031 159.925781 174.144531 C 160.253906 175.210938 160.667969 176.242188 161.160156 177.238281 C 166.789062 188.539062 176.539062 204.117188 191.417969 215.355469 C 192.25 215.984375 193.121094 216.550781 194.035156 217.046875 C 194.945312 217.546875 195.894531 217.976562 196.871094 218.332031 C 197.847656 218.691406 198.847656 218.976562 199.867188 219.183594 C 200.886719 219.390625 201.917969 219.523438 202.957031 219.578125 C 203.996094 219.632812 205.035156 219.609375 206.070312 219.507812 C 207.105469 219.40625 208.128906 219.230469 209.140625 218.976562 C 210.148438 218.722656 211.132812 218.394531 212.09375 217.992188 C 213.054688 217.589844 213.980469 217.121094 214.871094 216.582031 L 220.90625 212.90625 C 222.261719 212.082031 223.691406 211.421875 225.195312 210.925781 C 226.699219 210.429688 228.242188 210.105469 229.820312 209.960938 C 231.398438 209.816406 232.972656 209.851562 234.542969 210.0625 C 236.113281 210.277344 237.640625 210.667969 239.121094 211.230469 L 263.121094 220.351562 C 263.757812 220.597656 264.382812 220.867188 264.992188 221.171875 C 265.601562 221.476562 266.195312 221.808594 266.773438 222.171875 C 267.351562 222.53125 267.910156 222.921875 268.449219 223.339844 C 268.988281 223.757812 269.507812 224.199219 270.003906 224.667969 C 270.5 225.132812 270.972656 225.625 271.421875 226.140625 C 271.867188 226.652344 272.289062 227.1875 272.683594 227.742188 C 273.078125 228.300781 273.445312 228.875 273.785156 229.464844 C 274.125 230.054688 274.433594 230.664062 274.714844 231.285156 C 274.992188 231.90625 275.242188 232.542969 275.457031 233.1875 C 275.675781 233.835938 275.859375 234.488281 276.011719 235.15625 C 276.164062 235.820312 276.285156 236.488281 276.371094 237.164062 C 276.457031 237.84375 276.511719 238.519531 276.53125 239.203125 C 276.550781 239.882812 276.539062 240.566406 276.492188 241.246094 C 276.445312 241.925781 276.363281 242.601562 276.25 243.273438 C 276.136719 243.945312 275.992188 244.613281 275.8125 245.269531 C 275.632812 245.929688 275.425781 246.574219 275.183594 247.214844 C 274.902344 247.945312 274.582031 248.660156 274.222656 249.359375 L 267.574219 262.25 C 267.035156 263.289062 266.414062 264.28125 265.707031 265.21875 C 265 266.15625 264.222656 267.027344 263.367188 267.832031 C 262.515625 268.636719 261.601562 269.367188 260.625 270.015625 C 259.648438 270.667969 258.625 271.234375 257.554688 271.710938 C 256.484375 272.191406 255.378906 272.574219 254.242188 272.867188 C 253.105469 273.160156 251.953125 273.351562 250.785156 273.449219 C 249.617188 273.546875 248.445312 273.542969 247.277344 273.445312 C 246.109375 273.34375 244.957031 273.144531 243.820312 272.851562 C 206.132812 263.101562 116.304688 229.207031 109.070312 126.710938 C 108.996094 125.699219 109 124.6875 109.074219 123.675781 C 109.152344 122.664062 109.300781 121.664062 109.523438 120.675781 C 109.746094 119.6875 110.039062 118.71875 110.402344 117.769531 C 110.765625 116.824219 111.195312 115.910156 111.695312 115.023438 C 112.191406 114.140625 112.75 113.296875 113.371094 112.496094 C 113.992188 111.691406 114.667969 110.941406 115.398438 110.238281 C 116.128906 109.535156 116.90625 108.886719 117.730469 108.296875 C 118.554688 107.707031 119.417969 107.179688 120.320312 106.714844 L 132.558594 100.429688 C 133.167969 100.117188 133.785156 99.835938 134.421875 99.585938 C 135.054688 99.332031 135.699219 99.113281 136.355469 98.925781 C 137.011719 98.738281 137.675781 98.582031 138.34375 98.460938 C 139.015625 98.339844 139.691406 98.25 140.371094 98.195312 C 141.050781 98.136719 141.730469 98.113281 142.414062 98.125 C 143.097656 98.136719 143.777344 98.179688 144.453125 98.257812 C 145.128906 98.335938 145.800781 98.445312 146.46875 98.589844 C 147.136719 98.734375 147.792969 98.910156 148.445312 99.117188 C 149.09375 99.328125 149.730469 99.566406 150.355469 99.839844 C 150.980469 100.109375 151.59375 100.410156 152.1875 100.742188 C 152.785156 101.070312 153.363281 101.433594 153.925781 101.820312 C 154.484375 102.207031 155.027344 102.621094 155.546875 103.0625 C 156.066406 103.503906 156.566406 103.96875 157.039062 104.460938 C 157.511719 104.949219 157.960938 105.460938 158.386719 105.996094 C 158.8125 106.527344 159.207031 107.082031 159.578125 107.65625 C 159.949219 108.230469 160.289062 108.820312 160.601562 109.425781 Z M 160.601562 109.425781 " fill-opacity="1" fill-rule="nonzero"/></svg>