<svg xmlns="http://www.w3.org/2000/svg" xmlns:xlink="http://www.w3.org/1999/xlink" width="500" zoomAndPan="magnify" viewBox="0 0 375 374.999991" height="500" preserveAspectRatio="xMidYMid meet" version="1.0"><defs><clipPath id="d60dee6766"><path d="M 6.113281 157 L 136 157 L 136 365 L 6.113281 365 Z M 6.113281 157 " clip-rule="nonzero"/></clipPath><clipPath id="1d31a5c0a9"><path d="M 236 157 L 366.113281 157 L 366.113281 365 L 236 365 Z M 236 157 " clip-rule="nonzero"/></clipPath></defs><path fill="#19ebcb" d="M 363.710938 148.25 L 333.808594 171.570312 L 333.808594 124.328125 Z M 363.710938 148.25 " fill-opacity="1" fill-rule="nonzero"/><path fill="#19ebcb" d="M 38.40625 171.570312 L 8.503906 148.25 L 38.40625 124.328125 Z M 38.40625 171.570312 " fill-opacity="1" fill-rule="nonzero"/><g clip-path="url(#d60dee6766)"><path fill="#19ebcb" d="M 135.875 261.269531 L 6.113281 364.71875 L 6.113281 157.21875 L 40.199219 184.128906 C 40.199219 184.128906 40.796875 184.726562 40.796875 184.726562 L 92.222656 225.988281 Z M 135.875 261.269531 " fill-opacity="1" fill-rule="nonzero"/></g><path fill="#19ebcb" d="M 213.015625 27.457031 L 159.199219 27.457031 L 181.921875 9.515625 C 184.3125 7.722656 187.304688 7.722656 189.695312 9.515625 Z M 213.015625 27.457031 " fill-opacity="1" fill-rule="nonzero"/><path fill="#19ebcb" d="M 186.109375 117.75 L 105.378906 36.425781 L 224.976562 36.425781 C 225.574219 36.425781 225.574219 36.425781 226.171875 36.425781 C 226.769531 36.425781 226.769531 36.425781 227.367188 36.425781 L 267.433594 36.425781 Z M 186.109375 117.75 " fill-opacity="1" fill-rule="nonzero"/><path fill="#19ebcb" d="M 189.097656 194.890625 L 273.414062 113.566406 L 273.414062 220.007812 L 229.164062 255.289062 L 204.644531 235.554688 C 193.882812 227.183594 178.332031 227.183594 167.570312 235.554688 L 143.050781 255.289062 L 98.800781 220.007812 L 98.800781 113.566406 L 183.117188 194.890625 C 184.910156 196.085938 187.304688 196.085938 189.097656 194.890625 Z M 189.097656 194.890625 " fill-opacity="1" fill-rule="nonzero"/><path fill="#19ebcb" d="M 47.375 179.34375 L 47.375 43.601562 C 47.375 40.011719 50.363281 36.425781 54.550781 36.425781 L 92.222656 36.425781 L 182.519531 127.320312 C 184.3125 129.113281 187.304688 129.113281 189.097656 127.320312 L 279.992188 36.425781 L 317.664062 36.425781 C 321.253906 36.425781 324.839844 39.414062 324.839844 43.601562 L 324.839844 179.34375 L 282.382812 212.832031 L 282.382812 102.800781 C 282.382812 101.007812 281.1875 99.214844 279.394531 98.617188 C 277.601562 98.019531 275.804688 98.019531 274.609375 99.214844 L 186.109375 185.324219 L 97.605469 99.8125 C 96.410156 98.617188 94.617188 98.019531 92.820312 99.214844 C 91.027344 99.8125 89.832031 101.605469 89.832031 103.398438 L 89.832031 212.832031 C 89.234375 212.832031 44.984375 176.953125 47.375 179.34375 Z M 47.375 179.34375 " fill-opacity="1" fill-rule="nonzero"/><path fill="#19ebcb" d="M 199.261719 242.730469 L 358.328125 370.101562 L 14.484375 370.101562 L 172.953125 242.730469 C 180.726562 236.75 191.488281 236.75 199.261719 242.730469 Z M 199.261719 242.730469 " fill-opacity="1" fill-rule="nonzero"/><g clip-path="url(#1d31a5c0a9)"><path fill="#19ebcb" d="M 366.101562 157.21875 L 366.101562 364.71875 L 236.339844 261.269531 L 280.589844 225.988281 C 280.589844 225.390625 365.503906 157.816406 366.101562 157.21875 Z M 366.101562 157.21875 " fill-opacity="1" fill-rule="nonzero"/></g></svg>