<svg xmlns="http://www.w3.org/2000/svg" xmlns:xlink="http://www.w3.org/1999/xlink" width="500" zoomAndPan="magnify" viewBox="0 0 375 374.999991" height="500" preserveAspectRatio="xMidYMid meet" version="1.0"><defs><clipPath id="f1b1076e70"><path d="M 5 5 L 370.953125 5 L 370.953125 370.21875 L 5 370.21875 Z M 5 5 " clip-rule="nonzero"/></clipPath></defs><g clip-path="url(#f1b1076e70)"><path fill="#19ebcb" d="M 188.042969 370.011719 C 86.644531 369.234375 4.199219 287.398438 5.035156 186.289062 C 5.832031 89.785156 85.1875 5.457031 188.253906 5.210938 C 291.757812 4.964844 369.824219 92.230469 370.292969 187.148438 C 370.785156 287.097656 287.679688 370 188.042969 370.011719 Z M 188.058594 350.210938 C 273.878906 350.5 350.46875 279.375 350.882812 188.667969 C 351.285156 99.867188 277.132812 25.40625 189.304688 24.996094 C 97.117188 24.5625 25.0625 100.285156 24.332031 186.351562 C 23.566406 276.382812 97.429688 349.25 188.058594 350.210938 Z M 188.058594 350.210938 " fill-opacity="1" fill-rule="nonzero"/></g><path fill="#19ebcb" d="M 45.035156 187.507812 C 45.335938 153.035156 57.367188 123.082031 79.382812 96.976562 C 101.410156 70.859375 129.464844 54.691406 162.957031 48.609375 C 204.910156 40.992188 242.628906 51.324219 275.984375 77.613281 C 298.75 95.554688 314.574219 118.578125 323.347656 146.125 C 334.707031 181.796875 331.992188 216.6875 315.066406 250.128906 C 297.710938 284.414062 270.59375 308.191406 234.457031 320.894531 C 196.605469 334.203125 159.140625 331.527344 123.5 313.300781 C 80.613281 291.367188 54.949219 256.125 46.8125 208.492188 C 45.632812 201.597656 45.597656 194.507812 45.035156 187.503906 Z M 171.144531 235.421875 C 172.132812 235.988281 172.839844 236.359375 173.519531 236.785156 C 184.136719 243.398438 194.753906 250.015625 205.363281 256.648438 C 208.304688 258.488281 209.40625 258.296875 211.148438 255.277344 C 212.832031 252.363281 214.371094 249.367188 215.992188 246.417969 C 230.070312 220.761719 244.1875 195.128906 258.222656 169.449219 C 267.65625 152.179688 276.976562 134.847656 286.332031 117.535156 C 286.820312 116.628906 287.128906 115.621094 287.519531 114.660156 C 287.359375 114.507812 287.199219 114.359375 287.039062 114.210938 C 286.441406 114.484375 285.796875 114.679688 285.257812 115.039062 C 283.863281 115.976562 282.515625 116.984375 281.144531 117.960938 C 260.386719 132.710938 239.695312 147.550781 218.859375 162.1875 C 194.25 179.472656 169.523438 196.597656 144.8125 213.738281 C 143.335938 214.761719 142.632812 215.902344 142.503906 217.652344 C 141.449219 232.328125 140.347656 246.996094 139.25 261.667969 C 139.203125 262.304688 139.074219 262.9375 138.980469 263.570312 C 138.105469 261.996094 137.757812 260.441406 137.363281 258.898438 C 132.867188 241.171875 128.398438 223.4375 123.8125 205.730469 C 123.324219 203.847656 123.804688 203.027344 125.414062 202.167969 C 133.609375 197.789062 141.792969 193.390625 149.894531 188.839844 C 189.0625 166.847656 228.203125 144.816406 267.339844 122.773438 C 272.285156 119.988281 277.148438 117.070312 282.050781 114.214844 C 281.339844 113.859375 280.785156 113.898438 280.277344 114.0625 C 274.917969 115.792969 269.566406 117.542969 264.214844 119.292969 C 234.125 129.148438 204.050781 139.046875 173.941406 148.84375 C 143.070312 158.882812 112.167969 168.824219 81.277344 178.796875 C 78.214844 179.785156 75.113281 180.648438 72.0625 181.675781 C 71.457031 181.878906 71.007812 182.558594 70.484375 183.019531 C 70.949219 183.539062 71.332031 184.1875 71.894531 184.554688 C 72.621094 185.023438 73.484375 185.285156 74.296875 185.605469 C 88.050781 191 101.792969 196.410156 115.558594 201.765625 C 117.566406 202.546875 118.898438 203.53125 119.480469 205.882812 C 124.449219 225.957031 129.566406 245.992188 134.648438 266.035156 C 135.066406 267.671875 135.445312 269.417969 137.398438 269.933594 C 139.476562 270.480469 140.640625 269.019531 141.8125 267.703125 C 145.121094 263.984375 148.363281 260.207031 151.714844 256.53125 C 158.125 249.507812 164.59375 242.535156 171.144531 235.425781 Z M 171.144531 235.421875 " fill-opacity="1" fill-rule="nonzero"/></svg>